<?xml version="1.0" encoding="UTF-8" standalone="no"?>
<!-- Created with Inkscape (http://www.inkscape.org/) -->

<svg
   width="210mm"
   height="297mm"
   viewBox="0 0 210 297"
   version="1.1"
   id="svg5"
   inkscape:export-filename="C:\Users\Pablo\Desktop\g5691.png"
   inkscape:export-xdpi="96"
   inkscape:export-ydpi="96"
   inkscape:version="1.1 (c68e22c387, 2021-05-23)"
   sodipodi:docname="logo.svg"
   xmlns:inkscape="http://www.inkscape.org/namespaces/inkscape"
   xmlns:sodipodi="http://sodipodi.sourceforge.net/DTD/sodipodi-0.dtd"
   xmlns="http://www.w3.org/2000/svg"
   xmlns:svg="http://www.w3.org/2000/svg">
  <sodipodi:namedview
     id="namedview7"
     pagecolor="#ffffff"
     bordercolor="#666666"
     borderopacity="1.0"
     inkscape:pageshadow="2"
     inkscape:pageopacity="0.0"
     inkscape:pagecheckerboard="0"
     inkscape:document-units="mm"
     showgrid="false"
     inkscape:zoom="0.37415825"
     inkscape:cx="176.39595"
     inkscape:cy="546.56018"
     inkscape:window-width="1920"
     inkscape:window-height="1025"
     inkscape:window-x="-8"
     inkscape:window-y="-8"
     inkscape:window-maximized="1"
     inkscape:current-layer="layer1" />
  <defs
     id="defs2">
    <clipPath
       clipPathUnits="userSpaceOnUse"
       id="clipPath1091">
      <g
         inkscape:label="Clip"
         id="use1093">
        <path
           style="fill:#000000;stroke-width:0.264583"
           d="M 395.42502,96.070919 V 10.6105 h 86.25416 86.25417 v 85.460419 85.460421 h -86.25417 -86.25416 z m 62.57396,76.617721 c 10.92038,-2.78313 19.23357,-12.84394 20.78277,-25.15179 0.41776,-3.31897 0.17681,-8.79046 -0.51286,-11.64614 -0.77078,-3.19149 -0.91281,-4.91182 -0.57155,-6.9229 0.34534,-2.03514 1.59417,-5.37029 1.99747,-5.3345 0.46949,0.0417 1.47304,2.85052 1.78628,4.9997 0.31788,2.18095 0.24687,2.97614 -0.7426,8.31604 -0.64138,3.46139 -0.41343,9.39425 0.49457,12.87154 1.18155,4.52492 3.12938,8.29798 6.39988,12.39696 5.26091,6.59357 13.42169,10.4983 21.44668,10.26169 l 2.57836,-0.076 0.88376,-1.5875 c 0.48606,-0.87313 0.82996,-1.73329 0.7642,-1.91148 -0.0657,-0.17819 -1.87248,-2.79756 -4.01496,-5.82084 -2.14248,-3.02326 -4.86469,-6.86607 -6.04937,-8.53956 -1.18467,-1.67349 -2.55046,-3.60155 -3.03508,-4.28458 l -0.88112,-1.24186 1.84436,-7.62168 1.84436,-7.62167 1.96638,-0.16723 c 1.08151,-0.092 5.18248,-0.2417 9.11326,-0.33273 l 7.14689,-0.1655 2.57261,3.37544 c 1.41493,1.85649 4.0329,5.28523 5.8177,7.61942 1.7848,2.33419 3.78679,4.95357 4.44887,5.82083 0.66209,0.86727 1.37027,1.57685 1.57375,1.57685 0.4343,0 1.94004,-3.36061 2.50845,-5.59851 1.34779,-5.30643 1.19564,-11.63763 -0.40627,-16.90631 -0.78619,-2.58574 -2.91592,-6.8156 -4.46467,-8.86726 -2.90926,-3.85394 -7.15188,-7.20671 -11.46306,-9.05877 -3.41093,-1.46532 -5.42964,-1.81715 -11.57386,-2.01713 -6.54373,-0.21298 -8.13639,-0.65674 -10.76154,-2.99846 l -0.57508,-0.513 4.28026,-4.27236 c 6.88934,-6.876631 10.57549,-12.764091 12.20493,-19.493491 1.23003,-5.07987 1.11843,-8.733544 -0.40661,-13.311688 l -0.77917,-2.339057 1.23399,-1.36511 c 0.67869,-0.750808 1.58548,-2.111944 2.0151,-3.024746 0.69656,-1.479997 0.77088,-1.880941 0.68657,-3.704166 -0.11486,-2.484229 -0.96023,-4.40081 -2.85655,-6.476236 -0.97525,-1.067366 -1.31138,-1.664907 -1.45115,-2.579751 -1.0036,-6.568882 -2.68863,-11.442666 -5.39703,-15.610417 -0.52012,-0.800365 -2.93733,-3.452276 -5.37158,-5.893136 l -4.42592,-4.437926 -1.14342,0.162401 c -12.33125,1.751419 -20.715,4.758993 -27.40735,9.832063 -6.14804,4.660471 -10.42151,12.07891 -12.62961,21.92409 -0.80211,3.576357 -0.79054,3.547925 -1.44316,3.547925 -0.96752,0 -3.88248,1.059455 -5.35459,1.946146 -0.82824,0.498864 -1.55661,0.8563 -1.61861,0.7943 -0.19189,-0.191886 0.82515,-5.416421 1.54014,-7.911735 2.47266,-8.629545 6.40848,-15.24973 12.52233,-21.062992 5.48758,-5.217776 12.17955,-8.768163 20.4102,-10.828521 l 1.18569,-0.29681 -0.77769,-0.407472 c -1.65522,-0.867261 -8.90939,0.09608 -14.29567,1.89844 -13.04562,4.365337 -21.07721,14.740135 -22.62554,29.226515 l -0.29399,2.750579 -2.51588,2.694197 c -4.95282,5.303845 -8.1383,10.255367 -8.83071,13.726457 -0.40928,2.051727 -0.0213,3.57917 1.36667,5.37982 1.4929,1.93684 4.81534,5.044 6.82638,6.38406 1.43934,0.95912 1.86684,1.43459 2.73338,3.0402 2.54362,4.71304 7.24132,10.88492 12.09399,15.889191 l 3.04293,3.13799 -1.32158,1.17047 c -1.69708,1.50303 -4.43149,3.13848 -5.95179,3.55977 -0.74251,0.20575 -2.58475,0.30994 -4.89479,0.27682 -4.36371,-0.0626 -6.72704,0.24946 -9.82754,1.29749 -5.59474,1.89115 -9.8782,5.15456 -14.05226,10.70593 -5.37596,7.14986 -7.53394,17.28905 -5.59951,26.30902 0.25215,1.17572 0.426,1.42184 1.41291,2.0002 0.61897,0.36274 1.35305,0.65695 1.63131,0.65381 0.3337,-0.004 3.25291,-3.20287 8.57571,-9.39797 l 8.06979,-9.39225 2.11667,0.13955 c 1.98023,0.13056 9.22821,0.80759 11.67838,1.09087 l 1.09505,0.12661 0.97286,5.08143 c 0.53507,2.79479 1.38561,7.21029 1.89008,9.81222 l 0.91722,4.7308 -0.96268,1.22233 c -0.52948,0.67228 -3.57731,4.58585 -6.77296,8.69681 -3.19566,4.11096 -5.90235,7.47448 -6.01488,7.47448 -0.32231,0 -0.86774,1.38104 -0.63292,1.60256 0.1161,0.10953 1.22313,0.44415 2.46006,0.74359 1.23693,0.29944 2.48708,0.60285 2.77812,0.67425 1.32701,0.32554 6.45083,-0.10199 8.99584,-0.7506 z m -8.46667,-0.0511 c -1.02082,-0.14732 -4.43617,-0.9335 -4.69928,-1.08173 -0.11075,-0.0624 0.15066,-0.46547 0.58092,-0.89573 0.43025,-0.43025 1.30157,-1.46421 1.93625,-2.29768 0.94754,-1.24431 10.95593,-14.1353 11.9319,-15.3685 0.21067,-0.26619 0.1732,-0.44068 -0.1445,-0.67299 -0.42131,-0.30807 -0.7823,-2.02661 -3.1454,-14.97438 -0.43817,-2.40078 -0.90412,-4.47251 -1.03545,-4.60384 -0.13133,-0.13132 -2.95336,-0.44613 -6.27119,-0.69956 -3.31783,-0.25343 -6.81411,-0.54471 -7.7695,-0.64728 l -1.73709,-0.18649 -3.1577,3.64041 c -8.31777,9.58929 -12.64777,14.56759 -12.96763,14.9092 -0.30039,0.32083 -0.49834,0.2767 -1.38195,-0.30804 -0.98207,-0.6499 -1.04741,-0.78154 -1.36781,-2.75571 -0.45192,-2.78453 -0.40024,-8.42826 0.10286,-11.2334 1.12384,-6.26618 4.21614,-12.02209 9.19561,-17.11639 2.48383,-2.54112 4.88735,-4.21662 8.0189,-5.59001 3.67388,-1.61124 5.31798,-1.90868 10.98502,-1.98729 4.78465,-0.0664 4.94242,-0.0866 7.01146,-0.8983 2.30592,-0.90465 5.79104,-3.38611 6.47436,-4.60984 0.4048,-0.72496 0.4048,-0.72496 -2.19172,-3.27313 -4.38769,-4.305981 -9.43911,-10.799561 -12.45198,-16.006981 l -0.71022,-1.22754 1.00019,0.48795 c 1.76966,0.86332 5.55049,1.8087 8.3877,2.0973 4.28366,0.43574 9.21712,-0.16045 13.91146,-1.68113 6.87852,-2.22823 20.09183,-7.16005 26.45833,-9.87546 4.61957,-1.97033 13.25783,-6.414859 15.41259,-7.930041 0.69156,-0.486291 1.34701,-0.884166 1.45656,-0.884166 0.26217,0 1.28767,2.691212 1.66353,4.365625 0.39395,1.755019 0.39101,6.451482 -0.005,8.598962 -0.69321,3.75542 -2.7631,8.53892 -5.37895,12.43072 -2.27752,3.38843 -3.92845,5.29169 -7.99865,9.221171 -3.25558,3.14303 -3.88197,3.86802 -3.6576,4.23334 0.46513,0.75733 3.85649,2.9494 5.24863,3.39256 0.99642,0.31719 2.62043,0.4375 6.48845,0.48069 4.88833,0.0546 5.31228,0.10099 8.06979,0.88335 7.58761,2.15276 13.18694,6.67672 17.15562,13.86082 1.23533,2.23617 2.69854,6.7201 3.10902,9.52737 0.39626,2.7101 0.15704,8.75024 -0.43211,10.91031 -0.45663,1.67419 -1.66766,4.90478 -1.9673,5.24805 -0.15359,0.17595 -5.03728,-6.05571 -12.04396,-15.36827 l -1.85252,-2.46218 -8.46666,0.1833 c -4.65667,0.10082 -9.00121,0.25759 -9.65454,0.34839 l -1.18787,0.16509 -0.83044,3.17212 c -1.54187,5.88968 -3.02285,12.16416 -3.01717,12.78291 0.003,0.35501 1.36874,2.53592 3.23032,5.15938 1.77357,2.49943 4.8167,6.78544 6.7625,9.52446 1.94581,2.73902 3.60002,5.14208 3.67602,5.34013 0.076,0.19804 -0.18048,0.90382 -0.56994,1.56839 -0.58935,1.00565 -0.84814,1.21467 -1.54288,1.24619 -3.97481,0.18033 -9.06819,-0.90247 -12.59903,-2.67841 -8.05533,-4.05168 -14.35055,-12.57392 -16.0302,-21.70113 -0.5857,-3.18266 -0.49135,-8.2942 0.21167,-11.46782 0.41629,-1.87921 0.59205,-3.52286 0.58445,-5.46551 -0.01,-2.4389 -0.11835,-3.09234 -0.89117,-5.35138 -1.27161,-3.71705 -1.67161,-3.87682 -3.01201,-1.20311 -1.60384,3.19918 -1.93748,7.38678 -0.98103,12.313 1.70635,8.78855 0.45901,16.38917 -3.89118,23.71082 -1.65277,2.78172 -6.07402,7.27901 -8.80854,8.96003 -2.25411,1.3857 -5.40485,2.69813 -7.77864,3.24018 -1.72497,0.39389 -6.12372,0.69042 -7.4349,0.5012 z m 4.89479,-86.211491 c -2.25443,-0.37145 -5.35291,-1.35954 -7.20989,-2.2992 -0.54571,-0.27613 -0.99219,-0.43357 -0.99219,-0.34986 0,0.0837 -1.06682,-0.57847 -2.3707,-1.47152 -2.44362,-1.67366 -6.78305,-5.93891 -7.60364,-7.47365 -1.78756,-3.343234 1.39998,-9.84683 8.47355,-17.288697 l 2.48546,-2.614872 0.19262,-2.116667 c 0.62863,-6.907556 3.16289,-13.927765 6.73858,-18.666642 2.81309,-3.728195 7.27854,-7.358332 11.531,-9.373987 4.47913,-2.123095 10.1142,-3.532653 14.81667,-3.706245 2.18625,-0.08071 2.80422,-0.0474 1.98437,0.106947 -1.90335,0.358335 -5.82651,1.749275 -8.63338,3.060932 -4.35889,2.036922 -8.26272,4.82812 -12.00984,8.586908 -6.44134,6.461398 -10.39203,13.893955 -12.54208,23.595821 -0.95105,4.291497 -0.91896,4.922488 0.31083,6.112558 1.4403,1.39378 5.62659,4.174334 6.28472,4.174334 0.52911,0 0.58262,-0.208275 0.88624,-3.450061 1.26488,-13.505035 5.7073,-23.447231 13.10819,-29.336302 3.68926,-2.935634 8.66742,-5.512227 13.87408,-7.180948 5.69798,-1.826186 13.88586,-3.416976 14.87172,-2.889364 0.25081,0.134232 1.01574,0.872443 1.69985,1.64047 0.6841,0.768026 2.06204,2.110787 3.06208,2.983912 5.22144,4.558772 8.56156,11.274393 9.79165,19.687019 0.30782,2.105205 0.38894,2.286508 1.6424,3.670615 4.66914,5.155827 3.72176,10.562498 -2.60647,14.875019 -3.75149,2.556542 -12.52697,6.984817 -19.28894,9.73357 -9.87407,4.01382 -24.78191,9.24683 -28.04584,9.84476 -2.63197,0.48215 -7.95679,0.55611 -10.45104,0.14515 z m -0.80715,-21.808365 c -1.08404,-0.732423 -2.32816,-1.634144 -2.76472,-2.003828 l -0.79375,-0.672152 0.60593,-0.515028 c 0.71518,-0.607885 4.55246,-2.132801 5.36696,-2.132801 0.39192,0 0.51963,0.12087 0.41522,0.392973 -0.0829,0.216135 -0.23197,1.496057 -0.33118,2.844271 -0.27411,3.725288 -0.18419,3.650191 -2.49846,2.086565 z"
           id="path1181" />
      </g>
    </clipPath>
  </defs>
  <g
     inkscape:label="Capa 1"
     inkscape:groupmode="layer"
     id="layer1"
     style="display:inline">
    <path
       style="fill:#000000;stroke-width:0.264583"
       id="path41"
       d="" />
    <path
       style="fill:#030302;stroke:none;stroke-width:0.194"
       d="m 85.54465,130.18393 v 0.19684 c 1.314322,1.32414 3.11163,3.00081 4.971268,3.34626 l 0.573607,-5.70833 c -1.991189,0.0894 -3.936671,0.98655 -5.544875,2.16523 m -2.48563,16.53449 c 1.154478,4.12575 4.744303,8.00703 7.378503,11.21984 1.115476,1.36035 2.512016,3.17758 4.093649,3.93678 -2.758868,6.08981 -11.219765,3.85057 -16.252219,5.40087 -8.10775,2.49789 -13.168902,11.20587 -14.202826,19.40087 -0.307302,2.43549 -0.491239,5.92545 0.442287,8.24657 1.36469,3.39312 4.68282,-1.75619 5.676116,-2.93191 1.934013,-2.28924 3.824053,-4.6206 5.780432,-6.88937 0.700758,-0.81255 1.502277,-2.22547 2.512404,-2.63706 2.050072,-0.83518 5.646784,0.3553 7.822092,0.46415 0.811845,0.0408 2.129997,-0.0667 2.78525,0.52005 0.749703,0.67122 0.790621,2.47191 0.957735,3.42441 0.471886,2.69316 1.011458,5.3747 1.467287,8.07041 0.162711,0.96195 0.71758,2.39415 0.403625,3.34626 -0.396935,1.20407 -1.643196,2.34455 -2.385631,3.34627 -1.812028,2.44494 -3.677396,4.84638 -5.49994,7.28305 -0.764236,1.02159 -1.972639,2.10028 -2.317186,3.34627 3.108573,0.43088 5.809309,1.11687 8.98652,0.49997 9.684602,-1.88021 15.642662,-11.51175 16.053552,-21.16809 0.15086,-3.54606 -1.28163,-6.92067 -1.1323,-10.43248 0.0883,-2.07429 0.95601,-3.83324 1.71337,-5.70834 h 0.1912 c 0.64607,1.59972 1.39252,3.15928 1.51241,4.92099 0.23881,3.50688 -1.02007,6.90118 -0.93594,10.43248 0.17189,7.22557 4.13724,14.71353 10.13087,18.53949 2.71794,1.73494 5.63722,2.6717 8.79531,3.05652 1.20592,0.14704 2.91412,0.39348 3.69021,-0.74268 1.57034,-2.29849 -1.85754,-5.61621 -3.18754,-7.46827 -1.43746,-2.00186 -2.78754,-4.07438 -4.19116,-6.10202 -0.59196,-0.85507 -1.63459,-1.90599 -1.85103,-2.95258 -0.19579,-0.94562 0.36998,-2.23334 0.59254,-3.14943 0.60668,-2.49868 0.88029,-5.50166 1.89118,-7.85211 0.50344,-1.171 2.23421,-0.80881 3.247,-0.80881 2.48869,0 4.96744,-0.13701 7.4569,-0.1998 1.29043,-0.0325 2.36097,-0.50686 3.35771,0.60509 2.46632,2.75102 4.55425,6.05713 6.75116,9.04299 0.92581,1.25819 1.89272,3.21399 3.2753,3.93678 1.00496,-3.05809 1.95638,-5.77487 2.09577,-9.05461 0.40573,-9.553 -5.57298,-18.00015 -14.14152,-21.173 -4.92633,-1.82411 -11.60255,1.08203 -15.105,-4.02241 2.21871,-1.18497 4.12462,-3.58582 5.73607,-5.5115 5.55501,-6.63879 8.76415,-14.97946 5.35368,-23.42386 -2.87129,1.31547 -5.5858,3.37795 -8.41292,4.86999 -5.22192,2.75575 -10.90925,4.83339 -16.4434,6.81123 -5.15387,1.84203 -10.280583,4.24543 -15.869815,3.85136 -2.95274,-0.20806 -5.518108,-1.20249 -8.221705,-2.34436 z"
       id="path1265"
       inkscape:export-filename="C:\Users\Pablo\Desktop\g569.png"
       inkscape:export-xdpi="96"
       inkscape:export-ydpi="96" />
    <path
       style="fill:#000000;stroke-width:0.333968"
       d="m 87.075924,148.7166 c -2.817609,-0.77831 -5.8391,-2.55756 -8.347058,-4.91528 -3.830798,-3.60131 -4.253058,-5.22897 -2.375458,-9.15657 1.202379,-2.51516 3.020346,-5.03013 5.564047,-7.69731 1.533995,-1.60846 1.612763,-1.78698 1.972069,-4.46927 0.845061,-6.30864 2.862609,-10.64277 6.820449,-14.65186 3.062995,-3.10267 6.251648,-4.95337 10.839467,-6.29127 4.60366,-1.34253 9.64118,-1.581524 9.63415,-0.45708 -0.001,0.22201 -1.23714,0.74825 -2.74614,1.1694 -11.051969,3.08461 -19.27813,12.05161 -22.035464,24.01999 -0.803067,3.48574 -0.757335,3.66094 1.400325,5.36605 1.052693,0.8319 1.993418,1.51264 2.090516,1.51275 0.09712,1.2e-4 0.353934,-1.46994 0.570737,-3.26679 0.567605,-4.7042 1.549244,-8.14703 3.44519,-12.08301 3.532196,-7.33283 9.388676,-11.6057 19.357416,-14.1231 2.0598,-0.52017 4.6747,-1.05163 5.81089,-1.18104 l 2.06579,-0.23528 3.30612,3.3444 c 4.52785,4.58029 6.38771,8.09492 7.39581,13.97605 0.30231,1.76373 0.64813,2.62818 1.39705,3.49231 0.5474,0.63162 1.20123,1.64457 1.45294,2.25101 0.66561,1.60359 0.57515,4.26975 -0.19651,5.79238 -0.8389,1.65532 -3.46614,3.96618 -5.91519,5.20289 -1.05529,0.53289 -2.49675,1.33167 -3.20324,1.77505 -3.05342,1.9163 -21.57506,9.19755 -27.043397,10.63134 -2.412483,0.63254 -8.961908,0.6292 -11.260509,-0.006 z m 8.842691,-0.64172 c 3.741112,-0.36273 20.477315,-6.63351 28.322045,-10.6118 6.71311,-3.40442 9.07494,-5.39549 9.92042,-8.36308 0.42554,-1.49361 -0.0606,-3.00493 -1.66461,-5.17411 -0.93943,-1.27052 -1.33812,-2.23039 -1.63198,-3.92904 -0.60011,-3.46896 -1.56119,-6.26138 -2.95181,-8.5765 -1.44072,-2.39853 -6.93406,-8.09581 -7.806,-8.09581 -1.27298,0 -7.27296,1.32938 -9.697,2.14851 -4.739,1.6014 -9.27374,4.30912 -11.921411,7.11835 -4.066186,4.31431 -6.723681,11.73866 -7.356506,20.55222 -0.05422,0.75493 -0.270912,1.2056 -0.610831,1.2703 -0.289746,0.0552 -1.63786,-0.70535 -2.995788,-1.69003 l -2.46897,-1.79033 0.07385,-2.00669 c 0.142238,-3.86688 2.559251,-10.59942 5.304732,-14.77628 1.959817,-2.98157 5.602558,-6.64878 8.596111,-8.65386 2.676383,-1.79262 6.900293,-3.82298 8.059443,-3.87402 0.33042,-0.0146 0.4338,-0.0957 0.22976,-0.18034 -0.65482,-0.2716 -6.32159,1.13749 -8.840127,2.19818 -7.527526,3.17023 -13.04086,10.98837 -13.805618,19.57693 -0.208853,2.34544 -0.250973,2.43306 -2.276196,4.73519 -3.865848,4.39441 -6.152901,8.26804 -6.159606,10.43265 -0.005,1.80474 3.410903,5.50776 6.986928,7.5729 2.730449,1.57682 7.372087,2.68903 9.985966,2.39278 0.457688,-0.0519 1.675956,-0.17612 2.707238,-0.27612 z"
       id="path1894"
       inkscape:export-filename="C:\Users\Pablo\Desktop\g569.png"
       inkscape:export-xdpi="96"
       inkscape:export-ydpi="96" />
    <path
       style="fill:#ff7f2a;stroke-width:0.0566464"
       d="m 90.703205,148.26454 c -2.551865,-0.30592 -5.543792,-1.24522 -7.437101,-2.33483 -1.400473,-0.80599 -2.779477,-1.85732 -4.026336,-3.06963 -1.277731,-1.24232 -2.055619,-2.20825 -2.55136,-3.16809 -0.339875,-0.65806 -0.454469,-1.10703 -0.405511,-1.58873 0.230947,-2.27224 2.388985,-5.81279 6.233052,-10.22616 1.020902,-1.17209 1.500445,-1.79346 1.700707,-2.20367 0.220057,-0.45076 0.352703,-1.09842 0.479742,-2.34237 0.205269,-2.00998 0.518175,-3.55939 1.057868,-5.23822 2.118092,-6.5888 6.931495,-12.01171 12.828095,-14.45248 1.535349,-0.63553 4.530009,-1.50345 6.766799,-1.96117 0.89579,-0.18331 1.91148,-0.28148 1.9679,-0.19019 0.0184,0.0298 -0.19239,0.0962 -0.47591,0.14976 -1.91644,0.36229 -6.68952,2.86504 -9.194042,4.82087 -2.584769,2.0185 -5.422889,4.99605 -7.051078,7.39749 -2.424754,3.5763 -4.678324,9.26909 -5.333264,13.47246 -0.109092,0.70014 -0.268478,3.43766 -0.209152,3.59227 0.03493,0.091 2.636523,1.98748 3.464746,2.52565 0.869655,0.56509 1.688507,0.97227 1.955281,0.97227 0.18669,0 0.24646,-0.0305 0.360474,-0.18411 0.218796,-0.29471 0.264705,-0.51008 0.383385,-1.79852 0.793896,-8.61888 3.275676,-15.41851 7.188708,-19.69577 2.757992,-3.01471 8.076172,-6.09858 13.006022,-7.54185 2.58537,-0.7569 7.56382,-1.82199 8.51635,-1.82199 0.37068,0 0.55855,0.10211 1.33536,0.72577 0.58909,0.47295 3.29075,3.19501 4.17098,4.20247 1.68359,1.92694 2.31797,2.81393 3.06555,4.28621 1.04852,2.06496 1.68237,4.04465 2.27885,7.11753 0.39298,2.02454 0.64462,2.7008 1.43486,3.85603 0.90459,1.32239 1.14707,1.70446 1.4184,2.23486 0.85287,1.66718 0.83488,2.94583 -0.0659,4.68244 -0.50258,0.96896 -1.4802,2.06497 -2.66014,2.9823 -1.43715,1.11729 -3.92766,2.58612 -6.93884,4.09231 -6.41944,3.21101 -18.90627,8.0797 -25.362341,9.88892 -1.499303,0.42016 -2.195342,0.54695 -4.046378,0.73712 -1.833508,0.18837 -2.792391,0.20853 -3.855796,0.0811 z"
       id="path3022"
       inkscape:export-filename="C:\Users\Pablo\Desktop\g569.png"
       inkscape:export-xdpi="96"
       inkscape:export-ydpi="96" />
    <path
       style="fill:#ff7f2a;stroke-width:0.0566464"
       d="m 90.901468,148.26002 c -2.430929,-0.30236 -4.876353,-1.00627 -6.855666,-1.9734 -2.806742,-1.37142 -6.176052,-4.41098 -7.290851,-6.5773 -0.44832,-0.87119 -0.523069,-1.31821 -0.354456,-2.11977 0.13331,-0.63373 0.343812,-1.19959 0.795171,-2.13751 1.028811,-2.13786 2.575942,-4.31505 5.463325,-7.68823 1.727123,-2.01771 1.801604,-2.1722 2.040892,-4.23342 0.317445,-2.73446 0.698509,-4.44561 1.418798,-6.37107 1.296594,-3.46603 3.12687,-6.331 5.657086,-8.85516 2.067699,-2.06275 4.361232,-3.61482 6.858781,-4.64146 2.114242,-0.86907 6.557912,-2.05079 7.994312,-2.12595 l 0.53013,-0.0277 -0.50982,0.13622 c -2.36761,0.63265 -6.879037,3.06334 -9.318335,5.02059 -2.378963,1.90884 -5.028542,4.69381 -6.599182,6.93639 -2.001149,2.85727 -4.027262,7.47009 -5.01353,11.41425 -0.456838,1.82693 -0.600271,2.87226 -0.661705,4.8225 l -0.03503,1.11215 0.353751,0.27568 c 0.194563,0.15163 0.803836,0.60341 1.353941,1.00397 2.082151,1.5161 3.235394,2.18901 3.751603,2.18901 0.234798,0 0.287232,-0.0222 0.38827,-0.16405 0.170753,-0.23981 0.269935,-0.70958 0.371992,-1.76193 0.202684,-2.08997 0.497439,-4.10489 0.857663,-5.86291 1.267345,-6.18506 3.64758,-11.19384 6.822833,-14.35742 2.621549,-2.61192 7.002059,-5.18572 11.353099,-6.67061 2.45797,-0.83884 8.34736,-2.16862 9.60464,-2.16866 0.40808,-1e-5 0.63089,0.10759 1.21483,0.58666 0.89723,0.73612 3.58541,3.46219 4.72244,4.78903 1.37046,1.59922 1.93406,2.4148 2.66476,3.85608 1.03405,2.03964 1.53112,3.56567 2.2158,6.80249 0.55201,2.60966 0.65176,2.86081 1.8435,4.64167 1.24318,1.85772 1.66714,2.85847 1.66714,3.9352 0,0.70149 -0.16082,1.31804 -0.56194,2.15429 -1.06796,2.22648 -3.30068,3.98802 -8.51383,6.71714 -6.16926,3.22965 -18.95818,8.30667 -26.16891,10.3887 -1.827907,0.52779 -2.782265,0.69932 -5.053854,0.90833 -0.815316,0.075 -2.560539,0.10185 -3.007645,0.0462 z"
       id="path3061"
       inkscape:export-filename="C:\Users\Pablo\Desktop\g569.png"
       inkscape:export-xdpi="96"
       inkscape:export-ydpi="96" />
  </g>
</svg>
